HIERARCHY
ROOT hip
{
  OFFSET 0 0 0
  CHANNELS 6 Xposition Yposition Zposition Zrotation Yrotation Xrotation
  JOINT abdomen
  {
    OFFSET 0 20.6881 -0.73152
    CHANNELS 3 Zrotation Xrotation Yrotation
    JOINT chest
    {
      OFFSET 0 11.7043 -0.48768
      CHANNELS 3 Zrotation Xrotation Yrotation
      JOINT neck
      {
        OFFSET 0 22.1894 -2.19456
        CHANNELS 3 Zrotation Xrotation Yrotation
        JOINT head
        {
          OFFSET -0.24384 7.07133 1.2192
          CHANNELS 3 Zrotation Xrotation Yrotation
          JOINT leftEye
          {
            OFFSET 4.14528 8.04674 8.04672
            CHANNELS 3 Zrotation Xrotation Yrotation
            End Site
            {
              OFFSET 1 0 0
            }
          }
          JOINT rightEye
          {
            OFFSET -3.6576 8.04674 8.04672
            CHANNELS 3 Zrotation Xrotation Yrotation
            End Site
            {
              OFFSET 1 0 0
            }
          }
        }
      }
      JOINT rCollar
      {
        OFFSET -2.68224 19.2634 -4.8768
        CHANNELS 3 Zrotation Xrotation Yrotation
        JOINT rShldr
        {
          OFFSET -8.77824 -1.95073 1.46304
          CHANNELS 3 Zrotation Xrotation Yrotation
          JOINT rForeArm
          {
            OFFSET -28.1742 -1.7115 0.48768
            CHANNELS 3 Zrotation Xrotation Yrotation
            JOINT rHand
            {
              OFFSET -22.5879 0.773209 7.07136
              CHANNELS 3 Zrotation Xrotation Yrotation
              JOINT rThumb1
              {
                OFFSET -1.2192 -0.487915 3.41376
                CHANNELS 3 Zrotation Xrotation Yrotation
                JOINT rThumb2
                {
                  OFFSET -3.37035 -0.52449 3.41376
                  CHANNELS 3 Zrotation Xrotation Yrotation
                  End Site
                  {
                    OFFSET -1.78271 -1.18214 1.43049
                  }
                }
              }
              JOINT rIndex1
              {
                OFFSET -7.75947 0.938293 5.60832
                CHANNELS 3 Zrotation Xrotation Yrotation
                JOINT rIndex2
                {
                  OFFSET -2.54057 -0.884171 1.56538
                  CHANNELS 3 Zrotation Xrotation Yrotation
                  End Site
                  {
                    OFFSET -1.62519 -0.234802 1.16502
                  }
                }
              }
              JOINT rMid1
              {
                OFFSET -8.24714 1.18213 3.41376
                CHANNELS 3 Zrotation Xrotation Yrotation
                JOINT rMid2
                {
                  OFFSET -3.10165 -0.590103 1.0647
                  CHANNELS 3 Zrotation Xrotation Yrotation
                  End Site
                  {
                    OFFSET -2.48547 -0.328903 0.83742
                  }
                }
              }
              JOINT rRing1
              {
                OFFSET -8.82822 0.546677 1.51678
                CHANNELS 3 Zrotation Xrotation Yrotation
                JOINT rRing2
                {
                  OFFSET -2.60934 -0.819778 -0.0198488
                  CHANNELS 3 Zrotation Xrotation Yrotation
                  End Site
                  {
                    OFFSET -2.33842 -0.294052 0.168128
                  }
                }
              }
              JOINT rPinky1
              {
                OFFSET -8.27202 -0.0477905 -0.4584
                CHANNELS 3 Zrotation Xrotation Yrotation
                JOINT rPinky2
                {
                  OFFSET -1.82734 -0.647385 -0.700984
                  CHANNELS 3 Zrotation Xrotation Yrotation
                  End Site
                  {
                    OFFSET -1.69225 -0.51767 -0.607171
                  }
                }
              }
            }
          }
        }
      }
      JOINT lCollar
      {
        OFFSET 2.68224 19.2634 -4.8768
        CHANNELS 3 Zrotation Xrotation Yrotation
        JOINT lShldr
        {
          OFFSET 8.77824 -1.95073 1.46304
          CHANNELS 3 Zrotation Xrotation Yrotation
          JOINT lForeArm
          {
            OFFSET 28.1742 -1.7115 0.48768
            CHANNELS 3 Zrotation Xrotation Yrotation
            JOINT lHand
            {
              OFFSET 22.5879 0.773209 7.07136
              CHANNELS 3 Zrotation Xrotation Yrotation
              JOINT lThumb1
              {
                OFFSET 1.2192 -0.487915 3.41376
                CHANNELS 3 Zrotation Xrotation Yrotation
                JOINT lThumb2
                {
                  OFFSET 3.37035 -0.52449 3.41376
                  CHANNELS 3 Zrotation Xrotation Yrotation
                  End Site
                  {
                    OFFSET 1.78271 -1.18214 1.43049
                  }
                }
              }
              JOINT lIndex1
              {
                OFFSET 7.75947 0.938293 5.60832
                CHANNELS 3 Zrotation Xrotation Yrotation
                JOINT lIndex2
                {
                  OFFSET 2.54057 -0.884171 1.56538
                  CHANNELS 3 Zrotation Xrotation Yrotation
                  End Site
                  {
                    OFFSET 1.62519 -0.234802 1.16502
                  }
                }
              }
              JOINT lMid1
              {
                OFFSET 8.24714 1.18213 3.41376
                CHANNELS 3 Zrotation Xrotation Yrotation
                JOINT lMid2
                {
                  OFFSET 3.10165 -0.590103 1.0647
                  CHANNELS 3 Zrotation Xrotation Yrotation
                  End Site
                  {
                    OFFSET 2.48547 -0.328903 0.83742
                  }
                }
              }
              JOINT lRing1
              {
                OFFSET 8.82822 0.546677 1.51678
                CHANNELS 3 Zrotation Xrotation Yrotation
                JOINT lRing2
                {
                  OFFSET 2.60934 -0.819778 -0.0198488
                  CHANNELS 3 Zrotation Xrotation Yrotation
                  End Site
                  {
                    OFFSET 2.33842 -0.294052 0.168128
                  }
                }
              }
              JOINT lPinky1
              {
                OFFSET 8.27202 -0.0477905 -0.4584
                CHANNELS 3 Zrotation Xrotation Yrotation
                JOINT lPinky2
                {
                  OFFSET 1.82734 -0.647385 -0.700984
                  CHANNELS 3 Zrotation Xrotation Yrotation
                  End Site
                  {
                    OFFSET 1.69225 -0.51767 -0.607171
                  }
                }
              }
            }
          }
        }
      }
    }
  }
  JOINT rButtock
  {
    OFFSET -8.77824 4.35084 1.2192
    CHANNELS 3 Zrotation Xrotation Yrotation
    JOINT rThigh
    {
      OFFSET 0 -1.70687 -2.19456
      CHANNELS 3 Zrotation Xrotation Yrotation
      JOINT rShin
      {
        OFFSET 0 -36.8199 0.73152
        CHANNELS 3 Zrotation Xrotation Yrotation
        JOINT rFoot
        {
          OFFSET 0.73152 -45.1104 -5.12064
          CHANNELS 3 Zrotation Xrotation Yrotation
          End Site
          {
            OFFSET -1.1221 -3.69964 12.103
          }
        }
      }
    }
  }
  JOINT lButtock
  {
    OFFSET 8.77824 4.35084 1.2192
    CHANNELS 3 Zrotation Xrotation Yrotation
    JOINT lThigh
    {
      OFFSET 0 -1.70687 -2.19456
      CHANNELS 3 Zrotation Xrotation Yrotation
      JOINT lShin
      {
        OFFSET 0 -36.8199 0.73152
        CHANNELS 3 Zrotation Xrotation Yrotation
        JOINT lFoot
        {
          OFFSET -0.73152 -45.1104 -5.12064
          CHANNELS 3 Zrotation Xrotation Yrotation
          End Site
          {
            OFFSET 1.1221 -3.69964 12.103
          }
        }
      }
    }
  }
}
MOTION
Frames:	4
Frame Time:	0.00833333
3.83104 80.4508 38.9666 -1.9933 -0.1988 0.0733 1.19608 -3.37014 -0.483473 1.3537 1.56726 -0.241651 -1.18516 6.81561 -0.579234 2.6997 15.2603 -1.33707 -0.0 0.0 0.0 -0.0 0.0 0.0 -2.17632e-14 2.09826e-14 -8.59821e-15 68.8973 22.4726 19.2374 -17.9255 -10.6059 33.8552 -1.32921 30.8484 4.81509 -2.52668e-10 -3.70095e-11 2.86507e-10 -4.3095e-10 -9.99295e-11 5.02568e-10 -2.52667e-10 -3.70052e-11 2.86507e-10 7.73091 5.47488 0.417314 -2.52671e-10 -3.69936e-11 2.86501e-10 2.90554 0.965183 0.102902 -2.52664e-10 -3.70079e-11 2.86502e-10 10.2786 0.731801 0.0259123 -2.52675e-10 -3.70086e-11 2.86507e-10 2.22167 -0.733487 -0.20892 -2.18463e-14 2.09788e-14 -8.76283e-15 -62.2325 41.7071 -20.6937 15.8202 -8.5206 -29.2953 0.584354 -21.1888 3.12308 5.61513e-10 1.01977e-09 -3.8475e-10 9.7866e-10 1.78639e-09 -6.58869e-10 5.615e-10 1.01976e-09 -3.84752e-10 -7.73091 5.47488 -0.417314 5.61507e-10 1.01977e-09 -3.84752e-10 -2.90554 0.965183 -0.102902 5.61501e-10 1.01977e-09 -3.84755e-10 -10.2786 0.731801 -0.0259123 5.61517e-10 1.01977e-09 -3.84761e-10 -2.22167 -0.733487 0.20892 -2.03217e-16 0.0 -3.88251e-19 -3.01363 -20.3628 -3.92954 -0.325623 39.3596 0.714089 -1.07255 -14.95 -1.87151 2.03217e-16 0.0 3.88251e-19 6.37529 -22.2932 11.6225 0.349079 41.9884 -0.780055 1.92699 -12.8471 5.0007
3.82041 80.7806 39.0616 -1.9492 -0.2001 0.4041 1.0506 -3.33176 -0.528248 1.37547 1.60408 -0.252215 -1.16394 6.7254 -0.545252 2.63032 14.9334 -1.25504 -0.0 0.0 0.0 -0.0 0.0 0.0 -1.21998e-14 2.20663e-14 -4.67144e-15 69.1941 22.3718 18.7404 -17.7883 -10.4608 33.5468 -1.35181 31.0774 4.85901 -2.57953e-10 7.01471e-11 2.49139e-10 -4.40939e-10 8.8448e-11 4.38417e-10 -2.5795e-10 7.01471e-11 2.49139e-10 7.73091 5.47488 0.417314 -2.57955e-10 7.01621e-11 2.4913e-10 2.90554 0.965183 0.102902 -2.57949e-10 7.01454e-11 2.49133e-10 10.2786 0.731801 0.0259123 -2.5796e-10 7.01459e-11 2.49136e-10 2.22167 -0.733487 -0.20892 -1.22515e-14 2.20634e-14 -4.87022e-15 -62.5856 41.8861 -20.0752 15.6378 -8.35498 -28.9115 0.576269 -21.0512 3.1008 4.79928e-10 8.04451e-10 -3.46127e-10 8.3699e-10 1.41078e-09 -5.93237e-10 4.79913e-10 8.04443e-10 -3.4613e-10 -7.73091 5.47488 -0.417314 4.79919e-10 8.04445e-10 -3.4613e-10 -2.90554 0.965183 -0.102902 4.79915e-10 8.04445e-10 -3.46133e-10 -10.2786 0.731801 -0.0259123 4.79931e-10 8.04454e-10 -3.46137e-10 -2.22167 -0.733487 0.20892 -2.03217e-16 0.0 -3.88251e-19 -2.93673 -20.0128 -3.66591 -0.305292 38.2168 0.683035 -1.04631 -14.4733 -1.83444 2.03217e-16 0.0 3.88251e-19 6.24492 -21.9608 11.5606 0.325814 40.9191 -0.746315 1.79497 -12.476 4.67515
3.80555 81.0769 39.1501 -1.9201 -0.223 0.7324 0.940244 -3.28201 -0.56556 1.39032 1.64234 -0.260894 -1.14287 6.61944 -0.502534 2.56653 14.6491 -1.15856 -0.0 0.0 0.0 -0.0 0.0 0.0 -5.41418e-15 2.51715e-14 3.5956e-15 69.4713 22.2904 18.2654 -17.6276 -10.2924 33.1879 -1.37348 31.2943 4.90082 -2.5485e-10 1.69644e-10 1.90447e-10 -4.36535e-10 2.6383e-10 3.36989e-10 -2.54845e-10 1.69641e-10 1.90445e-10 7.73091 5.47488 0.417314 -2.54851e-10 1.69653e-10 1.90439e-10 2.90554 0.965183 0.102902 -2.54845e-10 1.6964e-10 1.90441e-10 10.2786 0.731801 0.0259123 -2.54857e-10 1.69643e-10 1.90445e-10 2.22167 -0.733487 -0.20892 -5.45332e-15 2.51703e-14 3.36963e-15 -62.9455 42.0353 -19.4723 15.4357 -8.17366 -28.489 0.567317 -20.8945 3.07554 3.52654e-10 6.33866e-10 -2.8655e-10 6.16076e-10 1.11258e-09 -4.91936e-10 3.52637e-10 6.33856e-10 -2.8655e-10 -7.73091 5.47488 -0.417314 3.52644e-10 6.33859e-10 -2.86553e-10 -2.90554 0.965183 -0.102902 3.5264e-10 6.33858e-10 -2.86555e-10 -10.2786 0.731801 -0.0259123 3.52657e-10 6.3387e-10 -2.86559e-10 -2.22167 -0.733487 0.20892 -2.03217e-16 0.0 -3.88251e-19 -2.82736 -19.6922 -3.35074 -0.286624 37.1039 0.654076 -1.02743 -14.0358 -1.81471 2.03217e-16 0.0 3.88251e-19 6.1449 -21.6328 11.5192 0.304167 39.8831 -0.715681 1.69239 -12.1606 4.42079
3.7855 81.3385 39.2351 -1.9153 -0.2683 1.0564 0.850803 -3.21214 -0.602127 1.4022 1.67665 -0.269407 -1.11954 6.49886 -0.450665 2.49801 14.3944 -1.04517 -0.0 0.0 0.0 -0.0 0.0 0.0 2.33815e-15 2.93448e-14 1.49679e-14 69.7324 22.2232 17.8121 -17.4383 -10.0954 32.7711 -1.3966 31.5222 4.94503 -2.4696e-10 3.19854e-10 1.01225e-10 -4.2429e-10 5.28184e-10 1.82591e-10 -2.46953e-10 3.19848e-10 1.01219e-10 7.73091 5.47488 0.417314 -2.46958e-10 3.19853e-10 1.01221e-10 2.90554 0.965183 0.102902 -2.46954e-10 3.1985e-10 1.01221e-10 10.2786 0.731801 0.0259123 -2.46966e-10 3.19854e-10 1.01226e-10 2.22167 -0.733487 -0.20892 2.30238e-15 2.9346e-14 1.47132e-14 -63.3198 42.1524 -18.8695 15.2157 -7.97824 -28.0336 0.557839 -20.7248 3.04829 1.63242e-10 4.12766e-10 -2.0429e-10 2.8743e-10 7.26284e-10 -3.52258e-10 1.63224e-10 4.12755e-10 -2.04282e-10 -7.73091 5.47488 -0.417314 1.63231e-10 4.12758e-10 -2.0429e-10 -2.90554 0.965183 -0.102902 1.63226e-10 4.12757e-10 -2.04292e-10 -10.2786 0.731801 -0.0259123 1.63246e-10 4.1277e-10 -2.04297e-10 -2.22167 -0.733487 0.20892 -2.03217e-16 0.0 -3.88251e-19 -2.70082 -19.4003 -2.99272 -0.269463 36.0278 0.627115 -1.0145 -13.634 -1.80968 2.03217e-16 0.0 3.88251e-19 6.0629 -21.3119 11.485 0.283768 38.8814 -0.687782 1.61315 -11.8929 4.22439
